ffmpeg started on 2016-12-04 at 22:10:05
Report written to "Output/x264/results/ffmpeg/sintelveryfast2000k.log"
Command line:
Tools/ffmpeg/ffmpeg -benchmark -y -i Input/y4m/sintel.y4m -c:v libx264 -preset veryfast -b:v 2000k -an Output/x264/encoded/sintelveryfast2000k.mkv
ffmpeg version N-82227-gdb23fde Copyright (c) 2000-2016 the FFmpeg developers
  built with gcc 5.4.0 (Ubuntu 5.4.0-6ubuntu1~16.04.2) 20160609
  configuration: --prefix=/home/jaroslav/ffmpeg_build --pkg-config-flags=--static --extra-cflags=-I/home/jaroslav/ffmpeg_build/include --extra-ldflags=-L/home/jaroslav/ffmpeg_build/lib --bindir=/home/jaroslav/bin --enable-gpl --enable-libass --enable-libfdk-aac --enable-libfreetype --enable-libmp3lame --enable-libopus --enable-libtheora --enable-libvorbis --enable-libvpx --enable-libx264 --enable-libx265 --enable-nvenc --enable-libmfx --enable-libxvid --enable-libgsm --enable-libopencore-amrnb --enable-version3 --enable-nonfree
  libavutil      55. 35.100 / 55. 35.100
  libavcodec     57. 66.101 / 57. 66.101
  libavformat    57. 57.100 / 57. 57.100
  libavdevice    57.  2.100 / 57.  2.100
  libavfilter     6. 66.100 /  6. 66.100
  libswscale      4.  3.100 /  4.  3.100
  libswresample   2.  4.100 /  2.  4.100
  libpostproc    54.  2.100 / 54.  2.100
Input #0, yuv4mpegpipe, from 'Input/y4m/sintel.y4m':
  Duration: 00:00:20.83, start: 0.000000, bitrate: 2057307 kb/s
    Stream #0:0: Video: rawvideo (I420 / 0x30323449), yuv420p(progressive), 4096x1744, SAR 1:1 DAR 256:109, 24 fps, 24 tbr, 24 tbn, 24 tbc
[libx264 @ 0x39b51c0] using SAR=1/1
[libx264 @ 0x39b51c0] using cpu capabilities: MMX2 SSE2Fast SSSE3 SSE4.2 AVX FMA3 AVX2 LZCNT BMI2
[libx264 @ 0x39b51c0] profile High, level 5.1
[libx264 @ 0x39b51c0] 264 - core 148 - H.264/MPEG-4 AVC codec - Copyleft 2003-2016 - http://www.videolan.org/x264.html - options: cabac=1 ref=1 deblock=1:0:0 analyse=0x3:0x113 me=hex subme=2 psy=1 psy_rd=1.00:0.00 mixed_ref=0 me_range=16 chroma_me=1 trellis=0 8x8dct=1 cqm=0 deadzone=21,11 fast_pskip=1 chroma_qp_offset=0 threads=6 lookahead_threads=2 sliced_threads=0 nr=0 decimate=1 interlaced=0 bluray_compat=0 constrained_intra=0 bframes=3 b_pyramid=2 b_adapt=1 b_bias=0 direct=1 weightb=1 open_gop=0 weightp=1 keyint=250 keyint_min=24 scenecut=40 intra_refresh=0 rc_lookahead=10 rc=abr mbtree=1 bitrate=2000 ratetol=1.0 qcomp=0.60 qpmin=0 qpmax=69 qpstep=4 ip_ratio=1.40 aq=1:1.00
Output #0, matroska, to 'Output/x264/encoded/sintelveryfast2000k.mkv':
  Metadata:
    encoder         : Lavf57.57.100
    Stream #0:0: Video: h264 (libx264) (H264 / 0x34363248), yuv420p, 4096x1744 [SAR 1:1 DAR 256:109], q=-1--1, 2000 kb/s, 24 fps, 1k tbn, 24 tbc
    Metadata:
      encoder         : Lavc57.66.101 libx264
    Side data:
      cpb: bitrate max/min/avg: 0/0/2000000 buffer size: 0 vbv_delay: -1
Stream mapping:
  Stream #0:0 -> #0:0 (rawvideo (native) -> h264 (libx264))
Press [q] to stop, [?] for help
frame=    6 fps=0.0 q=0.0 size=       0kB time=00:00:00.00 bitrate=N/A speed=   0x    frame=   17 fps= 12 q=0.0 size=       0kB time=00:00:00.00 bitrate=N/A speed=   0x    frame=   27 fps= 14 q=53.0 size=       1kB time=00:00:00.16 bitrate=  34.9kbits/s speed=0.0889x    frame=   32 fps= 13 q=52.0 size=       1kB time=00:00:00.37 bitrate=  15.6kbits/s speed=0.156x    frame=   37 fps= 12 q=54.0 size=       1kB time=00:00:00.58 bitrate=  10.0kbits/s speed=0.19x    frame=   41 fps= 11 q=54.0 size=       1kB time=00:00:00.75 bitrate=   7.8kbits/s speed=0.204x    frame=   47 fps=7.3 q=54.0 size=       1kB time=00:00:01.00 bitrate=   5.9kbits/s speed=0.156x    frame=   48 fps=5.0 q=54.0 size=       1kB time=00:00:01.04 bitrate=   5.6kbits/s speed=0.11x    frame=   49 fps=3.9 q=54.0 size=       1kB time=00:00:01.08 bitrate=   5.4kbits/s speed=0.0873x    frame=   55 fps=4.3 q=54.0 size=       1kB time=00:00:01.33 bitrate=   4.4kbits/s speed=0.103x    frame=   58 fps=4.3 q=54.0 size=       1kB time=00:00:01.45 bitrate=   4.0kbits/s speed=0.108x    frame=   59 fps=4.1 q=54.0 size=       1kB time=00:00:01.50 bitrate=   3.9kbits/s speed=0.105x    frame=   65 fps=4.4 q=53.0 size=       1kB time=00:00:01.75 bitrate=   3.3kbits/s speed=0.118x    frame=   79 fps=5.0 q=53.0 size=       1kB time=00:00:02.33 bitrate=   2.5kbits/s speed=0.149x    frame=   90 fps=5.5 q=54.0 size=       1kB time=00:00:02.79 bitrate=   2.1kbits/s speed=0.17x    frame=  104 fps=6.2 q=54.0 size=       1kB time=00:00:03.37 bitrate=   1.7kbits/s speed= 0.2x    frame=  114 fps=6.5 q=54.0 size=       1kB time=00:00:03.79 bitrate=   1.5kbits/s speed=0.215x    frame=  120 fps=6.6 q=54.0 size=    1207kB time=00:00:04.04 bitrate=2444.9kbits/s speed=0.222x    frame=  127 fps=6.8 q=54.0 size=    1207kB time=00:00:04.33 bitrate=2280.7kbits/s speed=0.232x    frame=  136 fps=7.0 q=54.0 size=    1207kB time=00:00:04.70 bitrate=2099.1kbits/s speed=0.243x    frame=  141 fps=7.1 q=54.0 size=    1207kB time=00:00:04.91 bitrate=2009.9kbits/s speed=0.248x    frame=  145 fps=7.0 q=54.0 size=    1207kB time=00:00:05.08 bitrate=1944.3kbits/s speed=0.246x    frame=  148 fps=6.9 q=54.0 size=    1207kB time=00:00:05.20 bitrate=1897.6kbits/s speed=0.243x    frame=  150 fps=6.8 q=54.0 size=    1207kB time=00:00:05.29 bitrate=1867.5kbits/s speed=0.24x    frame=  153 fps=6.7 q=54.0 size=    1207kB time=00:00:05.41 bitrate=1824.4kbits/s speed=0.238x    frame=  159 fps=6.8 q=54.0 size=    1207kB time=00:00:05.66 bitrate=1743.9kbits/s speed=0.242x    frame=  160 fps=6.7 q=54.0 size=    1207kB time=00:00:05.70 bitrate=1731.4kbits/s speed=0.237x    frame=  164 fps=6.6 q=54.0 size=    1207kB time=00:00:05.87 bitrate=1682.2kbits/s speed=0.238x    frame=  168 fps=6.6 q=54.0 size=    1207kB time=00:00:06.04 bitrate=1635.7kbits/s speed=0.237x    frame=  171 fps=6.5 q=54.0 size=    1207kB time=00:00:06.16 bitrate=1602.6kbits/s speed=0.236x    frame=  173 fps=6.4 q=54.0 size=    1207kB time=00:00:06.25 bitrate=1581.3kbits/s speed=0.231x    frame=  179 fps=6.5 q=54.0 size=    1787kB time=00:00:06.50 bitrate=2251.4kbits/s speed=0.235x    frame=  183 fps=6.5 q=54.0 size=    1787kB time=00:00:06.66 bitrate=2195.0kbits/s speed=0.236x    frame=  187 fps=6.5 q=54.0 size=    1787kB time=00:00:06.83 bitrate=2141.7kbits/s speed=0.237x    frame=  189 fps=6.4 q=54.0 size=    1787kB time=00:00:06.91 bitrate=2115.7kbits/s speed=0.235x    frame=  192 fps=6.3 q=54.0 size=    1787kB time=00:00:07.04 bitrate=2078.2kbits/s speed=0.233x    frame=  197 fps=6.4 q=54.0 size=    1787kB time=00:00:07.25 bitrate=2018.5kbits/s speed=0.235x    frame=  204 fps=6.5 q=54.0 size=    2012kB time=00:00:07.54 bitrate=2185.1kbits/s speed=0.241x    frame=  215 fps=6.7 q=53.0 size=    2012kB time=00:00:08.00 bitrate=2060.0kbits/s speed=0.249x    frame=  222 fps=6.8 q=53.0 size=    2012kB time=00:00:08.29 bitrate=1987.4kbits/s speed=0.253x    frame=  228 fps=6.9 q=53.0 size=    2012kB time=00:00:08.54 bitrate=1929.3kbits/s speed=0.257x    frame=  234 fps=6.9 q=53.0 size=    2012kB time=00:00:08.79 bitrate=1874.4kbits/s speed=0.261x    frame=  242 fps=7.0 q=53.0 size=    2012kB time=00:00:09.12 bitrate=1806.0kbits/s speed=0.266x    frame=  247 fps=7.1 q=53.0 size=    2012kB time=00:00:09.33 bitrate=1765.8kbits/s speed=0.268x    frame=  255 fps=7.2 q=52.0 size=    2012kB time=00:00:09.66 bitrate=1704.8kbits/s speed=0.273x    frame=  261 fps=7.2 q=52.0 size=    2012kB time=00:00:09.91 bitrate=1661.8kbits/s speed=0.273x    frame=  266 fps=7.2 q=52.0 size=    2012kB time=00:00:10.12 bitrate=1627.7kbits/s speed=0.272x    frame=  271 fps=7.2 q=52.0 size=    2012kB time=00:00:10.33 bitrate=1594.9kbits/s speed=0.273x    frame=  275 fps=7.2 q=52.0 size=    2012kB time=00:00:10.50 bitrate=1569.6kbits/s speed=0.273x    frame=  280 fps=7.1 q=52.0 size=    2012kB time=00:00:10.70 bitrate=1539.1kbits/s speed=0.273x    frame=  281 fps=7.1 q=49.0 size=    2012kB time=00:00:10.75 bitrate=1533.1kbits/s speed=0.27x    frame=  285 fps=7.1 q=52.0 size=    2012kB time=00:00:10.91 bitrate=1509.6kbits/s speed=0.271x    frame=  292 fps=7.0 q=52.0 size=    2608kB time=00:00:11.20 bitrate=1906.3kbits/s speed=0.27x    frame=  298 fps=7.1 q=51.0 size=    2608kB time=00:00:11.45 bitrate=1864.7kbits/s speed=0.273x    frame=  302 fps=7.1 q=51.0 size=    2608kB time=00:00:11.62 bitrate=1837.9kbits/s speed=0.272x    frame=  304 fps=7.0 q=51.0 size=    2608kB time=00:00:11.70 bitrate=1824.9kbits/s speed=0.27x    frame=  308 fps=7.0 q=51.0 size=    2608kB time=00:00:11.87 bitrate=1799.2kbits/s speed=0.27x    frame=  313 fps=7.0 q=51.0 size=    2608kB time=00:00:12.08 bitrate=1768.3kbits/s speed=0.269x    frame=  316 fps=6.9 q=51.0 size=    2608kB time=00:00:12.20 bitrate=1750.1kbits/s speed=0.268x    frame=  318 fps=6.9 q=51.0 size=    2608kB time=00:00:12.29 bitrate=1738.2kbits/s speed=0.267x    frame=  325 fps=6.9 q=50.0 size=    2608kB time=00:00:12.58 bitrate=1698.0kbits/s speed=0.266x    frame=  328 fps=6.8 q=50.0 size=    2608kB time=00:00:12.70 bitrate=1681.3kbits/s speed=0.263x    frame=  329 fps=6.7 q=50.0 size=    2608kB time=00:00:12.75 bitrate=1675.8kbits/s speed=0.261x    frame=  336 fps=6.8 q=50.0 size=    2608kB time=00:00:13.04 bitrate=1638.2kbits/s speed=0.264x    frame=  344 fps=6.9 q=49.0 size=    2608kB time=00:00:13.37 bitrate=1597.5kbits/s speed=0.268x    frame=  346 fps=6.8 q=49.0 size=    2608kB time=00:00:13.45 bitrate=1587.6kbits/s speed=0.266x    frame=  348 fps=6.8 q=49.0 size=    2608kB time=00:00:13.54 bitrate=1577.8kbits/s speed=0.265x    frame=  352 fps=6.8 q=49.0 size=    2608kB time=00:00:13.70 bitrate=1558.7kbits/s speed=0.265x    frame=  360 fps=6.9 q=48.0 size=    2608kB time=00:00:14.04 bitrate=1521.6kbits/s speed=0.268x    frame=  367 fps=6.9 q=48.0 size=    2608kB time=00:00:14.33 bitrate=1490.7kbits/s speed=0.271x    frame=  373 fps=7.0 q=47.0 size=    2608kB time=00:00:14.58 bitrate=1465.1kbits/s speed=0.273x    frame=  374 fps=6.9 q=47.0 size=    2608kB time=00:00:14.62 bitrate=1460.9kbits/s speed=0.27x    frame=  376 fps=6.9 q=47.0 size=    2608kB time=00:00:14.70 bitrate=1452.7kbits/s speed=0.269x    frame=  379 fps=6.9 q=47.0 size=    2608kB time=00:00:14.83 bitrate=1440.4kbits/s speed=0.268x    frame=  381 fps=6.8 q=47.0 size=    2608kB time=00:00:14.91 bitrate=1432.3kbits/s speed=0.266x    frame=  383 fps=6.8 q=47.0 size=    3023kB time=00:00:15.00 bitrate=1650.7kbits/s speed=0.264x    frame=  384 fps=6.7 q=47.0 size=    3023kB time=00:00:15.04 bitrate=1646.1kbits/s speed=0.262x    frame=  386 fps=6.7 q=47.0 size=    3023kB time=00:00:15.12 bitrate=1637.1kbits/s speed=0.261x    frame=  390 fps=6.7 q=47.0 size=    3023kB time=00:00:15.29 bitrate=1619.2kbits/s speed=0.262x    frame=  391 fps=6.6 q=47.0 size=    3023kB time=00:00:15.33 bitrate=1614.9kbits/s speed=0.26x    frame=  393 fps=6.6 q=47.0 size=    3023kB time=00:00:15.41 bitrate=1606.1kbits/s speed=0.257x    frame=  397 fps=6.5 q=46.0 size=    3023kB time=00:00:15.58 bitrate=1589.0kbits/s speed=0.257x    frame=  400 fps=6.5 q=46.0 size=    3023kB time=00:00:15.70 bitrate=1576.3kbits/s speed=0.256x    frame=  402 fps=6.5 q=46.0 size=    3023kB time=00:00:15.79 bitrate=1567.9kbits/s speed=0.255x    frame=  407 fps=6.5 q=46.0 size=    3023kB time=00:00:16.00 bitrate=1547.6kbits/s speed=0.254x    frame=  409 fps=6.4 q=46.0 size=    3023kB time=00:00:16.08 bitrate=1539.6kbits/s speed=0.253x    frame=  410 fps=6.4 q=46.0 size=    3023kB time=00:00:16.12 bitrate=1535.6kbits/s speed=0.251x    frame=  412 fps=6.4 q=46.0 size=    3023kB time=00:00:16.20 bitrate=1527.7kbits/s speed=0.25x    frame=  414 fps=6.3 q=46.0 size=    3023kB time=00:00:16.29 bitrate=1519.8kbits/s speed=0.249x    frame=  416 fps=6.3 q=46.0 size=    3023kB time=00:00:16.37 bitrate=1512.1kbits/s speed=0.249x    frame=  419 fps=6.3 q=46.0 size=    3023kB time=00:00:16.50 bitrate=1500.7kbits/s speed=0.249x    frame=  421 fps=6.3 q=46.0 size=    3023kB time=00:00:16.58 bitrate=1493.2kbits/s speed=0.247x    frame=  425 fps=6.3 q=46.0 size=    3023kB time=00:00:16.75 bitrate=1478.3kbits/s speed=0.247x    frame=  426 fps=6.2 q=46.0 size=    3023kB time=00:00:16.79 bitrate=1474.6kbits/s speed=0.245x    frame=  428 fps=6.2 q=46.0 size=    3023kB time=00:00:16.87 bitrate=1467.3kbits/s speed=0.244x    frame=  430 fps=6.1 q=46.0 size=    3023kB time=00:00:16.95 bitrate=1460.1kbits/s speed=0.241x    frame=  433 fps=6.1 q=46.0 size=    3023kB time=00:00:17.08 bitrate=1449.5kbits/s speed=0.24x    frame=  436 fps=6.1 q=46.0 size=    3023kB time=00:00:17.20 bitrate=1438.9kbits/s speed=0.24x    frame=  438 fps=6.0 q=46.0 size=    3023kB time=00:00:17.29 bitrate=1431.9kbits/s speed=0.237x    frame=  441 fps=6.0 q=46.0 size=    3460kB time=00:00:17.41 bitrate=1627.3kbits/s speed=0.236x    frame=  444 fps=6.0 q=46.0 size=    3460kB time=00:00:17.54 bitrate=1615.7kbits/s speed=0.236x    frame=  450 fps=6.0 q=46.0 size=    3460kB time=00:00:17.79 bitrate=1593.0kbits/s speed=0.236x    frame=  452 fps=6.0 q=46.0 size=    3460kB time=00:00:17.87 bitrate=1585.6kbits/s speed=0.236x    frame=  458 fps=6.0 q=46.0 size=    3460kB time=00:00:18.12 bitrate=1563.7kbits/s speed=0.236x    frame=  461 fps=6.0 q=45.0 size=    3460kB time=00:00:18.25 bitrate=1553.0kbits/s speed=0.236x    frame=  465 fps=6.0 q=45.0 size=    3460kB time=00:00:18.41 bitrate=1538.9kbits/s speed=0.237x    frame=  470 fps=6.0 q=45.0 size=    3460kB time=00:00:18.62 bitrate=1521.8kbits/s speed=0.238x    frame=  478 fps=6.1 q=45.0 size=    3460kB time=00:00:18.95 bitrate=1495.0kbits/s speed=0.24x    frame=  491 fps=6.2 q=45.0 size=    3460kB time=00:00:19.50 bitrate=1453.5kbits/s speed=0.245x    frame=  500 fps=6.3 q=-1.0 Lsize=    4008kB time=00:00:20.70 bitrate=1585.5kbits/s speed=0.259x    
video:4004kB audio:0kB subtitle:0kB other streams:0kB global headers:0kB muxing overhead: 0.110982%
bench: utime=56.444s
bench: maxrss=928672kB
[libx264 @ 0x39b51c0] frame I:8     Avg QP:40.56  size: 30895
[libx264 @ 0x39b51c0] frame P:284   Avg QP:46.51  size: 10501
[libx264 @ 0x39b51c0] frame B:208   Avg QP:43.87  size:  4181
[libx264 @ 0x39b51c0] consecutive B-frames: 41.2%  8.0%  6.0% 44.8%
[libx264 @ 0x39b51c0] mb I  I16..4: 55.0% 44.9%  0.1%
[libx264 @ 0x39b51c0] mb P  I16..4: 12.9% 10.0%  0.0%  P16..4:  3.2%  0.4%  0.1%  0.0%  0.0%    skip:73.4%
[libx264 @ 0x39b51c0] mb B  I16..4:  1.5%  1.0%  0.0%  B16..8:  4.0%  0.3%  0.0%  direct: 0.6%  skip:92.6%  L0:48.4% L1:50.6% BI: 0.9%
[libx264 @ 0x39b51c0] final ratefactor: 43.61
[libx264 @ 0x39b51c0] 8x8 transform intra:43.5% inter:70.8%
[libx264 @ 0x39b51c0] coded y,uvDC,uvAC intra: 6.7% 15.6% 0.1% inter: 0.1% 0.9% 0.0%
[libx264 @ 0x39b51c0] i16 v,h,dc,p: 61% 27%  8%  4%
[libx264 @ 0x39b51c0] i8 v,h,dc,ddl,ddr,vr,hd,vl,hu:  7% 12% 75%  1%  1%  1%  1%  1%  2%
[libx264 @ 0x39b51c0] i4 v,h,dc,ddl,ddr,vr,hd,vl,hu: 32% 23% 15%  6%  6%  4%  4%  5%  5%
[libx264 @ 0x39b51c0] i8c dc,h,v,p: 94%  3%  3%  0%
[libx264 @ 0x39b51c0] Weighted P-Frames: Y:0.4% UV:0.0%
[libx264 @ 0x39b51c0] kb/s:1574.04
